<svg width="54" height="54" viewBox="0 0 54 54" fill="none" xmlns="http://www.w3.org/2000/svg">
<g filter="url(#filter0_d_5595_3212)">
<path d="M27 42.5979C37.8236 42.5979 46.5979 33.8236 46.5979 23C46.5979 12.1764 37.8236 3.4021 27 3.4021C16.1764 3.4021 7.4021 12.1764 7.4021 23C7.4021 33.8236 16.1764 42.5979 27 42.5979Z" fill="#FBFBFE"/>
<path d="M27 1.38757e-06C22.451 1.38757e-06 18.0042 1.34893 14.2219 3.8762C10.4396 6.40347 7.4916 9.99558 5.75078 14.1983C4.00997 18.401 3.55449 23.0255 4.44195 27.4871C5.32941 31.9486 7.51995 36.0468 10.7366 39.2635C13.9532 42.4801 18.0514 44.6706 22.5129 45.5581C26.9745 46.4455 31.599 45.99 35.8017 44.2492C40.0044 42.5084 43.5965 39.5604 46.1238 35.7781C48.6511 31.9958 50 27.549 50 23C50.0011 19.9793 49.4069 16.988 48.2514 14.197C47.0959 11.4061 45.4018 8.87016 43.2658 6.73421C41.1298 4.59825 38.5939 2.90412 35.803 1.74863C33.012 0.593148 30.0207 -0.00104801 27 1.38757e-06ZM27 6.57257C28.9491 6.57257 30.8545 7.15055 32.4751 8.23341C34.0957 9.31628 35.3588 10.8554 36.1047 12.6561C36.8506 14.4569 37.0458 16.4384 36.6655 18.35C36.2853 20.2617 35.3467 22.0176 33.9684 23.3959C32.5902 24.7741 30.8343 25.7127 28.9226 26.0929C27.0109 26.4732 25.0295 26.278 23.2287 25.5321C21.428 24.7862 19.8889 23.5231 18.806 21.9025C17.7231 20.2819 17.1451 18.3765 17.1451 16.4274C17.1441 15.133 17.3983 13.851 17.8932 12.6549C18.388 11.4588 19.1139 10.372 20.0292 9.45665C20.9445 8.54133 22.0314 7.81547 23.2275 7.32059C24.4236 6.82571 25.7056 6.57152 27 6.57257ZM40.5205 32.216C39.0313 34.4347 37.019 36.2528 34.6611 37.5099C32.3032 38.7671 29.6721 39.4247 27 39.4247C24.3279 39.4247 21.6968 38.7671 19.3389 37.5099C16.981 36.2528 14.9687 34.4347 13.4795 32.216C13.0672 31.6131 12.8655 30.8908 12.906 30.1615C12.9464 29.4322 13.2266 28.7366 13.7031 28.183C17.1771 24.174 21.9927 29.5486 27 29.5486C32.0073 29.5486 36.8229 24.15 40.2969 28.159C40.7791 28.7145 41.0628 29.4147 41.1033 30.1492C41.1438 30.8837 40.9387 31.6108 40.5205 32.216Z" fill="#FF5CEF"/>
</g>
<defs>
<filter id="filter0_d_5595_3212" x="0" y="0" width="54" height="54" filterUnits="userSpaceOnUse" color-interpolation-filters="sRGB">
<feFlood flood-opacity="0" result="BackgroundImageFix"/>
<feColorMatrix in="SourceAlpha" type="matrix" values="0 0 0 0 0 0 0 0 0 0 0 0 0 0 0 0 0 0 127 0" result="hardAlpha"/>
<feOffset dy="4"/>
<feGaussianBlur stdDeviation="2"/>
<feComposite in2="hardAlpha" operator="out"/>
<feColorMatrix type="matrix" values="0 0 0 0 0 0 0 0 0 0 0 0 0 0 0 0 0 0 0.05 0"/>
<feBlend mode="normal" in2="BackgroundImageFix" result="effect1_dropShadow_5595_3212"/>
<feBlend mode="normal" in="SourceGraphic" in2="effect1_dropShadow_5595_3212" result="shape"/>
</filter>
</defs>
</svg>
