<svg width="161" height="160" viewBox="0 0 161 160" fill="none" xmlns="http://www.w3.org/2000/svg">
<g filter="url(#filter0_di_7757_65)">
<circle cx="80.5113" cy="80.0272" r="59.3921" fill="#D9D9D9"/>
<circle cx="80.5113" cy="80.0272" r="59.3921" fill="url(#paint0_linear_7757_65)"/>
</g>
<path fill-rule="evenodd" clip-rule="evenodd" d="M74.3697 79.3254C76.172 79.3254 77.633 80.7674 77.633 82.5463V87.3776C77.633 89.1564 76.172 90.5985 74.3697 90.5985C72.5674 90.5985 71.1064 89.1564 71.1064 87.3776V82.5463C71.1064 80.7674 72.5674 79.3254 74.3697 79.3254Z" fill="white"/>
<path fill-rule="evenodd" clip-rule="evenodd" d="M87.4229 79.3254C89.2252 79.3254 90.6862 80.7674 90.6862 82.5463V87.3776C90.6862 89.1564 89.2252 90.5985 87.4229 90.5985C85.6207 90.5985 84.1596 89.1564 84.1596 87.3776V82.5463C84.1596 80.7674 85.6207 79.3254 87.4229 79.3254Z" fill="white"/>
<path d="M66.2115 63.2209C66.2115 64.9997 64.7504 66.4418 62.9482 66.4418C61.3553 66.4418 60.7954 66.4457 60.357 66.4883C55.7089 66.9402 52.0316 70.5698 51.5738 75.1574C51.5306 75.5901 51.5266 76.1427 51.5266 77.7149V84.4788C51.5266 88.1397 51.5292 93.9126 51.6936 95.8993C51.855 97.8485 52.1558 98.9684 52.5937 99.8166C53.5323 101.635 55.0299 103.113 56.872 104.039C57.7314 104.472 58.866 104.768 60.8409 104.928C62.8538 105.09 65.4394 105.093 69.1485 105.093H92.6442C96.3533 105.093 98.9389 105.09 100.952 104.928C102.927 104.768 104.061 104.472 104.921 104.039C106.763 103.113 108.26 101.635 109.199 99.8166C109.637 98.9684 109.938 97.8485 110.099 95.8993C110.264 93.9125 110.266 88.1397 110.266 84.4788V77.7149C110.266 76.1427 110.262 75.5901 110.219 75.1574C109.761 70.5698 106.084 66.9402 101.436 66.4883C100.997 66.4457 100.437 66.4418 98.8445 66.4418C97.0422 66.4418 95.5812 64.9998 95.5812 63.2209C95.5812 61.4421 97.0422 60 98.8445 60L99.0333 60C100.367 59.9999 101.275 59.9997 102.075 60.0776C109.822 60.8306 115.951 66.88 116.714 74.526C116.793 75.3163 116.793 76.2125 116.793 77.5287L116.793 84.6171C116.793 88.1077 116.793 94.144 116.604 96.4239C116.41 98.7715 115.999 100.833 115.014 102.741C113.45 105.771 110.954 108.235 107.884 109.779C105.951 110.751 103.862 111.156 101.483 111.348C99.1733 111.534 96.3206 111.534 92.7838 111.534H69.0089C65.4721 111.534 62.6194 111.534 60.3094 111.348C57.931 111.156 55.8418 110.751 53.909 109.779C50.8389 108.235 48.3427 105.771 46.7784 102.741C45.7936 100.833 45.383 98.7715 45.1887 96.4239C45 94.144 45 88.1073 45 84.6167L45 77.5286C44.9998 76.2124 44.9997 75.3163 45.0786 74.526C45.8416 66.88 51.9705 60.8306 59.7172 60.0776C60.5179 59.9997 61.4259 59.9999 62.7594 60L62.9342 60L62.9482 60C64.7504 60 66.2115 61.442 66.2115 63.2209Z" fill="white"/>
<path fill-rule="evenodd" clip-rule="evenodd" d="M83.1738 49.5808L90.7958 53.937C92.1499 54.7114 92.9798 56.139 92.9798 57.6834V66.4002C92.9798 67.9446 92.1455 69.3722 90.7958 70.1465L83.1738 74.5071C81.8242 75.2815 80.1556 75.2815 78.8059 74.5071L71.1839 70.1465C69.8343 69.3722 69 67.9446 69 66.4002V57.6834C69 56.139 69.8343 54.7114 71.1839 53.937L78.8059 49.5808C80.1556 48.8064 81.8242 48.8064 83.1738 49.5808ZM81.0001 69C84.8661 69 88.0001 65.866 88.0001 62C88.0001 58.134 84.8661 55 81.0001 55C77.1341 55 74.0001 58.134 74.0001 62C74.0001 65.866 77.1341 69 81.0001 69ZM76.9321 62C76.9321 64.2467 78.7534 66.068 81.0001 66.068C83.2467 66.068 85.068 64.2467 85.068 62C85.068 59.7533 83.2467 57.932 81.0001 57.932C78.7534 57.932 76.9321 59.7533 76.9321 62Z" fill="white"/>
<defs>
<filter id="filter0_di_7757_65" x="0.625608" y="0.141462" width="159.771" height="159.771" filterUnits="userSpaceOnUse" color-interpolation-filters="sRGB">
<feFlood flood-opacity="0" result="BackgroundImageFix"/>
<feColorMatrix in="SourceAlpha" type="matrix" values="0 0 0 0 0 0 0 0 0 0 0 0 0 0 0 0 0 0 127 0" result="hardAlpha"/>
<feOffset/>
<feGaussianBlur stdDeviation="10.2468"/>
<feComposite in2="hardAlpha" operator="out"/>
<feColorMatrix type="matrix" values="0 0 0 0 0 0 0 0 0 0 0 0 0 0 0 0 0 0 0.11 0"/>
<feBlend mode="normal" in2="BackgroundImageFix" result="effect1_dropShadow_7757_65"/>
<feBlend mode="normal" in="SourceGraphic" in2="effect1_dropShadow_7757_65" result="shape"/>
<feColorMatrix in="SourceAlpha" type="matrix" values="0 0 0 0 0 0 0 0 0 0 0 0 0 0 0 0 0 0 127 0" result="hardAlpha"/>
<feOffset/>
<feGaussianBlur stdDeviation="20.8851"/>
<feComposite in2="hardAlpha" operator="arithmetic" k2="-1" k3="1"/>
<feColorMatrix type="matrix" values="0 0 0 0 0.980392 0 0 0 0 0.847059 0 0 0 0 0.87451 0 0 0 1 0"/>
<feBlend mode="normal" in2="shape" result="effect2_innerShadow_7757_65"/>
</filter>
<linearGradient id="paint0_linear_7757_65" x1="113.177" y1="34.7407" x2="39.6792" y2="123.086" gradientUnits="userSpaceOnUse">
<stop stop-color="#FB98C9"/>
<stop offset="0.48" stop-color="#FF7797"/>
<stop offset="1" stop-color="#FFC576"/>
</linearGradient>
</defs>
</svg>
